<svg id="Capa_1" enable-background="new 0 0 512 512" height="72" viewBox="0 0 512 512" width="72" xmlns="http://www.w3.org/2000/svg"><g><path d="m351.88 127.88c0 52.96-42.92 95.89-95.88 95.89h-.01c-52.96-.01-95.87-42.93-95.87-95.89 0-52.95 42.91-95.87 95.87-95.88h.01c52.96 0 95.88 42.93 95.88 95.88z" fill="#f0f7ff"/><path d="m351.88 127.88c0 52.96-42.92 95.89-95.88 95.89h-.01v-191.77h.01c52.96 0 95.88 42.93 95.88 95.88z" fill="#dfe7f4"/><path d="m497.262 280.729-43.843-11.196 11.197-43.844-29.067-7.422-13.371 52.356-59.094 34.997 15.304 25.802 59.095-34.997 52.356 13.371z" fill="#66341a"/><path d="m148.403 305.057-58.581-34.434-13.371-52.356-29.067 7.422 11.197 43.844-43.843 11.196 7.423 29.067 52.356-13.371 58.582 34.435z" fill="#8f4d29"/><path d="m400.12 367.88c0 79.6-64.53 144.12-144.12 144.12h-.01c-79.59-.01-144.11-64.52-144.11-144.12 0-79.59 64.52-144.1 144.11-144.11h.01c79.59 0 144.12 64.52 144.12 144.11z" fill="#f0f7ff"/><path d="m400.12 367.88c0 79.6-64.53 144.12-144.12 144.12h-.01v-288.23h.01c79.59 0 144.12 64.52 144.12 144.11z" fill="#dfe7f4"/><path d="m378.86 224c0 8.84-3.58 16.84-9.37 22.63s-13.79 9.37-22.63 9.37h-181.72c-17.67 0-32-14.33-32-32 0-8.84 3.58-16.84 9.37-22.63s13.79-9.37 22.63-9.37h90.86l32 12.33 32-12.33h26.86c17.67 0 32 14.33 32 32z" fill="#fd6b53"/><path d="m378.86 224c0 8.84-3.58 16.84-9.37 22.63s-13.79 9.37-22.63 9.37h-90.87v-64h.01l32 12.33 32-12.33h26.86c17.67 0 32 14.33 32 32z" fill="#e43135"/><path d="m184.48 0h143.04v75.25h-143.04z" fill="#e43135"/><path d="m255.99 0h71.53v75.25h-71.53z" fill="#b12629"/><path d="m210.875 120.5h30v30h-30z" fill="#506da4"/><path d="m271.125 120.5h30v30h-30z" fill="#2a4979"/><path d="m241 361.5h30v30h-30z" fill="#506da4"/><path d="m241 421.75h30v30h-30z" fill="#506da4"/><path d="m255.99 361.5h15.01v30h-15.01z" fill="#2a4979"/><path d="m255.99 421.75h15.01v30h-15.01z" fill="#2a4979"/><path d="m320 192h-64v146.276l32-14.871 32 14.871z" fill="#b12629"/><path d="m147.83 60.25h216.34v30h-216.34z" fill="#fd6b53"/><path d="m255.99 60.25h108.18v30h-108.18z" fill="#e43135"/></g></svg>