<svg id="Capa_1" enable-background="new 0 0 512 512" height="128" viewBox="0 0 512 512" width="128" xmlns="http://www.w3.org/2000/svg"><g><path d="m512 434.03-13.44 23.28c-46.22-3.12-63.33 24.1-73.94 40.78-26.86-23.82-46.1-26.96-71.41-16.84-11.63-42.09-61.37-37.01-81.87-35.94 9.37-45.39-15.05-109.8-15.33-109.24-.02.03-.03.07-.05.1-.28-.58-24.66 63.78-15.3 109.14-20.5-1.07-70.24-6.15-81.87 35.94-25.31-10.12-44.55-6.98-71.41 16.84-10.61-16.68-27.72-43.9-73.94-40.78l-13.44-23.28c26.34-39 10.03-68.01 1.65-84.42 42.61-13.31 47.19-35.96 50.35-53.7 42.55 12.34 63.36-36.23 72-52.66 34.86 31.01 102.53 41.86 102.17 41.32.66.04-42.8-53.28-86.83-67.88 11.23-17.25 40.4-57.85 9.81-88.88 21.22-16.72 28.41-34.76 21.12-70.26 19.74-.85 51.85-2.04 72.29-43.64h26.88c20.62 42.39 53.84 42.65 72.29 43.64-9.8 43.32 7.57 58.96 21.32 70.45-31.93 30.68-.3 73 9.61 88.69-44.31 14.68-87.49 67.92-86.83 67.88-.36.54 67.31-10.31 102.17-41.32 8.64 16.43 29.45 65 72 52.66 3.16 17.74 7.74 40.39 50.35 53.7-8.38 16.41-24.69 45.42 1.65 84.42z" fill="#91f2df"/><path d="m512 434.03-13.44 23.28c-46.22-3.12-63.33 24.1-73.94 40.78-26.86-23.82-46.1-26.96-71.41-16.84-11.63-42.09-61.37-37.01-81.87-35.94 9.37-45.39-15.05-109.8-15.33-109.24v-322.16h13.43c20.62 42.39 53.84 42.65 72.29 43.64-9.8 43.32 7.57 58.96 21.32 70.45-31.93 30.68-.3 73 9.61 88.69-44.31 14.68-87.49 67.92-86.83 67.88-.36.54 67.31-10.31 102.17-41.32 8.64 16.43 29.45 65 72 52.66 3.16 17.74 7.74 40.39 50.35 53.7-8.38 16.41-24.69 45.42 1.65 84.42z" fill="#59d8c0"/><path d="m418.24 378.1-15 25.98-147.23-85-.01-.01-147.24 85.01-15-25.98 147.24-85.01v-170.01h30v170.01z" fill="#59d8c0"/><path d="m418.24 378.1-15 25.98-147.23-85v-196h14.99v170.01z" fill="#2fb298"/><ellipse cx="199.483" cy="333.499" fill="#e43135" rx="56.516" ry="56.516" transform="matrix(.23 -.973 .973 .23 -170.927 451.024)"/><ellipse cx="312.524" cy="333.499" fill="#b12629" rx="56.516" ry="56.516" transform="matrix(.189 -.982 .982 .189 -74.059 577.317)"/><path d="m312.51 276.979c0 31.22-25.29 56.51-56.5 56.52h-.01c-31.21 0-56.52-25.3-56.52-56.52 0-31.21 25.31-56.51 56.52-56.51h.01c31.21.01 56.5 25.3 56.5 56.51z" fill="#fd6b53"/><path d="m312.51 276.979c0 31.22-25.29 56.51-56.5 56.52v-113.03c31.21.01 56.5 25.3 56.5 56.51z" fill="#e43135"/></g></svg>