<svg id="Capa_1" enable-background="new 0 0 512 512" height="512" viewBox="0 0 512 512" width="512" xmlns="http://www.w3.org/2000/svg"><g><path d="m449.61 359.72v152.28h-96.81l-96.8-15v-225.97z" fill="#dfe7f4"/><path d="m256 271.03-193.61 88.69v152.28h97.02l96.59-15 96.8 15h96.81v-152.28z" fill="#fed39a"/><path d="m449.61 359.72v152.28h-96.81l-96.8-15v-225.97z" fill="#feb556"/><path d="m481.88 318.39c0 30.55-31.24 51.15-59.32 39.12l-166.56-71.38-166.56 71.38c-5.56 2.38-11.24 3.48-16.78 3.48-22.44 0-42.54-18.1-42.54-42.6l225.88-96.8z" fill="#feb556"/><path d="m481.88 318.39c0 30.55-31.24 51.15-59.32 39.12l-166.56-71.38v-64.54z" fill="#fd9126"/><path d="m286.12 18.11v30h-15.12v27.14h-30v-27.14h-15.12v-30h15.12v-18.11h30v18.11z" fill="#8f4d29"/><path d="m286.12 18.11v30h-15.12v27.14h-15v-75.25h15v18.11z" fill="#66341a"/><path d="m352.8 143.43v368.57h-64.53l-32.27-15-32.27 15h-64.53v-368.57l96.8-41.63z" fill="#f0f7ff"/><path d="m352.8 143.43v368.57h-64.53l-32.27-15v-395.2z" fill="#dfe7f4"/><ellipse cx="256" cy="221.59" fill="#28e7ef" rx="32.27" ry="32.27" transform="matrix(.16 -.987 .987 .16 -3.736 438.79)"/><path d="m288.27 221.59c0 17.82-14.45 32.27-32.27 32.27v-64.54c17.82 0 32.27 14.45 32.27 32.27z" fill="#1cace7"/><path d="m288.27 415.2v96.8h-64.54v-96.8c0-17.82 14.45-32.27 32.27-32.27 8.91 0 16.98 3.61 22.82 9.45s9.45 13.91 9.45 22.82z" fill="#8f4d29"/><path d="m288.27 415.2v96.8h-32.27v-129.07c8.91 0 16.98 3.61 22.82 9.45s9.45 13.91 9.45 22.82z" fill="#66341a"/><path d="m385.07 115.57c0 30.55-31.24 51.14-59.32 39.11l-69.75-29.89-69.75 29.89c-5.56 2.38-11.24 3.49-16.79 3.49-22.44 0-42.53-18.1-42.53-42.6l129.07-55.32z" fill="#feb556"/><path d="m385.07 115.57c0 30.55-31.24 51.14-59.32 39.11l-69.75-29.89v-64.54z" fill="#fd9126"/><g><path d="m225.88 301.25h60.24v30h-60.24z" fill="#dfe7f4"/><path d="m256 301.25h30.12v30h-30.12z" fill="#c8d0e0"/></g></g></svg>