<svg id="Capa_1" enable-background="new 0 0 512 512" height="192" viewBox="0 0 512 512" width="192" xmlns="http://www.w3.org/2000/svg"><g><path d="m484.98 308.28c4-17.57 27.02-33.5 27.02-52.28s-23.02-34.71-27.02-52.28c-4.12-18.14 9.61-42.46 1.72-58.82-8.03-16.64-35.69-21.02-47.09-35.31-11.47-14.35-9.63-42.28-23.99-53.74-14.29-11.41-41.09-3.45-57.72-11.47-16.36-7.9-26.79-33.89-44.93-38.02-17.53-3.98-38.09 14.73-56.83 14.82h-.14c-18.78 0-39.4-18.81-56.97-14.82-18.14 4.13-28.57 30.12-44.93 38.02-16.63 8.02-43.43.06-57.72 11.47-14.36 11.46-12.52 39.38-23.98 53.74-11.41 14.29-39.07 18.67-47.1 35.31-7.89 16.36 5.84 40.68 1.72 58.82-4 17.57-27.02 33.5-27.02 52.28s23.02 34.71 27.02 52.28c4.12 18.14-9.61 42.46-1.72 58.82 8.03 16.64 35.69 21.02 47.09 35.31 11.47 14.35 9.63 42.28 23.99 53.74 14.29 11.41 41.09 3.45 57.72 11.47 16.36 7.9 26.79 33.89 44.93 38.02 17.57 3.99 38.19-14.82 56.97-14.82h.14c18.74.09 39.3 18.8 56.83 14.82 18.14-4.13 28.57-30.12 44.93-38.02 16.63-8.02 43.43-.06 57.72-11.47 14.36-11.46 12.52-39.38 23.98-53.74 11.41-14.29 39.07-18.67 47.1-35.31 7.89-16.36-5.84-40.68-1.72-58.82zm-228.84 107.71h-.14c-88.36 0-159.99-71.63-159.99-159.99s71.63-159.99 159.99-159.99h.14c88.3.08 159.85 71.68 159.85 159.99s-71.55 159.91-159.85 159.99z" fill="#91f2df"/><path d="m486.7 367.1c-8.03 16.64-35.69 21.02-47.1 35.31-11.46 14.36-9.62 42.28-23.98 53.74-14.29 11.41-41.09 3.45-57.72 11.47-16.36 7.9-26.79 33.89-44.93 38.02-17.53 3.98-38.09-14.73-56.83-14.82v-74.83c88.3-.08 159.85-71.68 159.85-159.99s-71.55-159.91-159.85-159.99v-74.83c18.74-.09 39.3-18.8 56.83-14.82 18.14 4.13 28.57 30.12 44.93 38.02 16.63 8.02 43.43.06 57.72 11.47 14.36 11.46 12.52 39.39 23.99 53.74 11.4 14.29 39.06 18.67 47.09 35.31 7.89 16.36-5.84 40.68-1.72 58.82 4 17.57 27.02 33.5 27.02 52.28s-23.02 34.71-27.02 52.28c-4.12 18.14 9.61 42.46 1.72 58.82z" fill="#59d8c0"/><path d="m301.42 114-13.43 31.99h-63.98l-13.16-31.99 13.16-31.99h63.98z" fill="#e43135"/><path d="m301.42 114-13.43 31.99h-31.85v-63.98h31.85z" fill="#b12629"/><path d="m128.029 50.015v127.97l76.931-25.643c-27.378 15.956-44.938 45.497-44.938 78.2h63.985v-148.534z" fill="#fd6b53"/><path d="m383.971 50.015-95.978 31.993v148.534h63.985c0-32.703-17.56-62.244-44.938-78.2l76.931 25.644z" fill="#e43135"/></g></svg>