<svg id="Capa_1" enable-background="new 0 0 512 512" height="384" viewBox="0 0 512 512" width="384" xmlns="http://www.w3.org/2000/svg"><g><path d="m484.98 308.28c4-17.57 27.02-33.5 27.02-52.28s-23.02-34.71-27.02-52.28c-4.12-18.14 9.61-42.46 1.72-58.82-8.03-16.64-35.69-21.02-47.1-35.31-11.46-14.35-9.62-42.28-23.98-53.74-14.29-11.41-41.09-3.45-57.72-11.47-16.36-7.9-26.79-33.89-44.93-38.02-17.57-3.99-38.19 14.82-56.97 14.82s-39.4-18.81-56.97-14.82c-18.14 4.13-28.57 30.12-44.93 38.02-16.63 8.02-43.43.06-57.72 11.47-14.36 11.46-12.52 39.38-23.98 53.74-11.41 14.29-39.07 18.67-47.1 35.31-7.89 16.36 5.84 40.68 1.72 58.82-4 17.57-27.02 33.5-27.02 52.28s23.02 34.71 27.02 52.28c4.12 18.14-9.61 42.46-1.72 58.82 8.03 16.64 35.69 21.02 47.1 35.31 11.46 14.35 9.62 42.28 23.98 53.74 14.29 11.41 41.09 3.45 57.72 11.47 16.36 7.9 26.79 33.89 44.93 38.02 17.57 3.99 38.19-14.82 56.97-14.82s39.4 18.81 56.97 14.82c18.14-4.13 28.57-30.12 44.93-38.02 16.63-8.02 43.43-.06 57.72-11.47 14.36-11.46 12.52-39.38 23.98-53.74 11.41-14.29 39.07-18.67 47.1-35.31 7.89-16.36-5.84-40.68-1.72-58.82zm-228.98 75.71c-70.69 0-127.99-57.3-127.99-127.99s57.3-127.99 127.99-127.99 127.99 57.3 127.99 127.99-57.3 127.99-127.99 127.99z" fill="#91f2df"/><path d="m486.7 367.1c-8.03 16.64-35.69 21.02-47.1 35.31-11.46 14.36-9.62 42.28-23.98 53.74-14.29 11.41-41.09 3.45-57.72 11.47-16.36 7.9-26.79 33.89-44.93 38.02-17.57 3.99-38.19-14.82-56.97-14.82v-106.83c70.69 0 127.99-57.3 127.99-127.99s-57.3-127.99-127.99-127.99v-106.83c18.78 0 39.4-18.81 56.97-14.82 18.14 4.13 28.57 30.12 44.93 38.02 16.63 8.02 43.43.06 57.72 11.47 14.36 11.46 12.52 39.39 23.98 53.74 11.41 14.29 39.07 18.67 47.1 35.31 7.89 16.36-5.84 40.68-1.72 58.82 4 17.57 27.02 33.5 27.02 52.28s-23.02 34.71-27.02 52.28c-4.12 18.14 9.61 42.46 1.72 58.82z" fill="#59d8c0"/><path d="m363.153 118.847h30v30.001h-30z" fill="#2fb298" transform="matrix(.707 -.707 .707 .707 16.116 306.602)"/><path d="m118.847 363.152h30v30.001h-30z" fill="#59d8c0" transform="matrix(.707 -.707 .707 .707 -228.193 205.407)"/><path d="m363.153 363.152h30.001v30h-30.001z" fill="#2fb298" transform="matrix(.707 -.707 .707 .707 -156.636 378.139)"/><path d="m118.847 118.847h30.001v30h-30.001z" fill="#59d8c0" transform="matrix(.707 -.707 .707 .707 -55.442 133.843)"/><ellipse cx="415.989" cy="256" fill="#e43135" rx="31.998" ry="31.998" transform="matrix(.16 -.987 .987 .16 96.66 625.611)"/><ellipse cx="96.011" cy="256" fill="#fd6b53" rx="31.998" ry="31.998" transform="matrix(.924 -.383 .383 .924 -90.659 56.229)"/><circle cx="256" cy="415.99" fill="#fd6b53" r="32"/><path d="m288 415.99c0 17.67-14.33 32-32 32v-64c17.67 0 32 14.33 32 32z" fill="#e43135"/><circle cx="256" cy="96.01" fill="#fd6b53" r="32"/><path d="m288 96.01c0 17.67-14.33 32-32 32v-64c17.67 0 32 14.33 32 32z" fill="#e43135"/></g></svg>