<svg id="Capa_1" enable-background="new 0 0 512 512" height="512" viewBox="0 0 512 512" width="512" xmlns="http://www.w3.org/2000/svg"><g><path d="m373.94 118.32-11.27 9.68 11.07 33.21 10.26 30.79-160 21.78-160-21.78 33.64-100.93c9.06-27.19 26.32-49.96 48.48-65.93 22.16-15.97 49.22-25.14 77.88-25.14h44.48c40.51 0 78.79 12.85 110.24 35.28 31.45 22.42 56.08 54.42 69.28 92.72h-53.71z" fill="#fd6b53"/><path d="m373.94 118.32-11.27 9.68 11.07 33.21 10.26 30.79-160 21.78v-213.78h44.48c40.51 0 78.79 12.85 110.24 35.28 31.45 22.42 56.08 54.42 69.28 92.72h-53.71z" fill="#e43135"/><circle cx="448" cy="128" fill="#dfe7f4" r="32"/><path d="m387.43 394.82c5.36 8 8.48 17.61 8.48 27.95 0 27.34-21.82 49.57-48.99 50.26-9.74 22.9-32.45 38.97-58.92 38.97-11.66 0-22.58-3.13-32-8.58-9.42 5.45-20.34 8.58-32 8.58s-22.58-3.13-32-8.58c-9.42 5.45-20.34 8.58-32 8.58-26.47 0-49.18-16.07-58.92-38.97-27.17-.69-48.99-22.92-48.99-50.26 0-10.34 3.12-19.95 8.48-27.95-10.03-8.16-16.44-20.6-16.44-34.54 0-11.5 4.36-21.97 11.51-29.88-7.15-7.9-11.51-18.37-11.51-29.87 0-24.59 19.94-44.53 44.53-44.53l135.34-18.77 135.34 18.77c24.59 0 44.53 19.94 44.53 44.53 0 11.5-4.36 21.97-11.51 29.87 7.15 7.91 11.51 18.38 11.51 29.88 0 13.94-6.41 26.38-16.44 34.54z" fill="#f0f7ff"/><path d="m387.43 394.82c5.36 8 8.48 17.61 8.48 27.95 0 27.34-21.82 49.57-48.99 50.26-9.74 22.9-32.45 38.97-58.92 38.97-11.66 0-22.58-3.13-32-8.58-9.42 5.45-20.34 8.58-32 8.58v-274.77l135.34 18.77c24.59 0 44.53 19.94 44.53 44.53 0 11.5-4.36 21.97-11.51 29.87 7.15 7.91 11.51 18.38 11.51 29.88 0 13.94-6.41 26.38-16.44 34.54z" fill="#dfe7f4"/><path d="m336 256v80c0 61.86-50.14 112-112 112-30.93 0-58.93-12.54-79.2-32.8-20.26-20.27-32.8-48.27-32.8-79.2v-80l112-18.77z" fill="#fed9b6"/><path d="m336 256v80c0 61.86-50.14 112-112 112v-210.77z" fill="#febf85"/><path d="m416 192v32c0 17.67-14.33 32-32 32h-320c-17.67 0-32-14.33-32-32v-32z" fill="#f0f7ff"/><path d="m416 192v32c0 17.67-14.33 32-32 32h-160v-64z" fill="#dfe7f4"/><path d="m272.84 359.8v30h-14.41c-13.37 0-25.52-5.33-34.43-13.99-8.91 8.66-21.06 13.99-34.43 13.99h-14.41v-30h14.41c10.71 0 19.43-8.71 19.43-19.42h30c0 10.71 8.72 19.42 19.43 19.42z" fill="#f0f7ff"/><path d="m272.84 359.8v30h-14.41c-13.37 0-25.52-5.33-34.43-13.99v-35.43h15c0 10.71 8.72 19.42 19.43 19.42z" fill="#dfe7f4"/><path d="m394.29 128h-31.62l-9.09-27.26 28.46-9.48z" fill="#b12629"/></g></svg>